<?xml version="1.0" standalone="no"?>
<!DOCTYPE svg PUBLIC "-//W3C//DTD SVG 20010904//EN"
 "http://www.w3.org/TR/2001/REC-SVG-20010904/DTD/svg10.dtd">
<svg version="1.0" xmlns="http://www.w3.org/2000/svg"
 width="50.000000pt" height="50.000000pt" viewBox="0 0 50.000000 50.000000"
 preserveAspectRatio="xMidYMid meet">
<metadata>
Created by potrace 1.16, written by Peter Selinger 2001-2019
</metadata>
<g transform="translate(0.000000,50.000000) scale(0.100000,-0.100000)"
fill="#000000" stroke="none">
<path d="M254 447 c3 -26 1 -37 -9 -37 -7 0 -13 6 -12 13 1 36 -4 42 -38 43
-19 0 -35 -1 -35 -3 0 -7 26 -48 34 -54 5 -4 -1 -10 -12 -13 -31 -10 -80 -71
-91 -114 -7 -24 -7 -50 -2 -70 9 -29 7 -33 -15 -38 -24 -6 -32 -28 -14 -39 5
-3 7 -12 3 -20 -9 -24 14 -17 35 10 14 18 23 22 28 14 4 -7 0 -17 -9 -24 -19
-14 -22 -32 -7 -37 5 -1 11 -13 13 -25 5 -35 11 -35 42 -3 36 38 60 40 51 5
-5 -20 -3 -25 12 -25 10 0 23 -5 30 -12 18 -18 23 -5 13 30 -8 28 -7 32 10 32
10 0 18 -3 17 -7 -3 -16 15 -43 24 -37 6 4 20 7 31 8 11 1 22 7 25 15 3 8 0
11 -5 8 -6 -4 -18 2 -27 12 -18 20 -6 39 16 25 6 -4 8 -3 5 3 -3 5 7 24 23 41
24 27 28 38 27 86 -2 49 0 56 20 60 17 5 21 13 20 41 -1 40 -9 43 -38 14 -14
-14 -24 -18 -31 -11 -13 13 -2 32 18 32 18 0 18 14 -1 30 -8 6 -13 17 -12 22
1 6 -4 13 -10 15 -7 3 -13 -3 -13 -12 0 -9 -7 -23 -15 -31 -23 -23 -18 -1 9
39 33 49 20 55 -25 11 -35 -35 -36 -35 -32 -10 4 21 1 26 -14 26 -10 0 -25 6
-31 12 -10 10 -12 5 -8 -25z m-36 -123 c-38 -36 -68 -68 -68 -70 0 -2 14 -4
30 -4 26 0 29 -3 21 -17 -5 -10 -19 -28 -30 -40 -29 -30 -27 -45 5 -37 25 6
25 5 14 -16 l-12 -23 -31 31 c-43 43 -50 121 -15 172 27 40 80 70 123 70 30 0
29 -1 -37 -66z m164 -21 c45 -101 -23 -204 -134 -203 l-33 1 63 57 c34 32 62
60 62 63 0 3 -14 3 -32 1 l-32 -5 42 50 c23 27 42 53 42 57 0 5 -13 6 -30 4
-34 -5 -34 -5 -18 21 17 28 45 10 70 -46z"/>
</g>
</svg>
